<svg width="115" height="24" viewBox="0 0 115 24" fill="none" xmlns="http://www.w3.org/2000/svg">
<path d="M114.758 6.87795V10.4229H104.88V6.87795H114.758ZM106.956 2.80273H112.061V17.922C112.061 18.3562 112.111 18.6946 112.212 18.937C112.313 19.1693 112.485 19.3359 112.728 19.4369C112.98 19.5278 113.313 19.5732 113.727 19.5732C114.02 19.5732 114.263 19.5682 114.455 19.5581C114.647 19.5379 114.828 19.5127 115 19.4824V23.1334C114.566 23.2748 114.111 23.3808 113.637 23.4515C113.162 23.5323 112.657 23.5727 112.122 23.5727C111.031 23.5727 110.097 23.401 109.319 23.0576C108.551 22.7143 107.966 22.1739 107.562 21.4366C107.158 20.6994 106.956 19.7399 106.956 18.5582V2.80273Z" fill="black"/>
<path d="M102.971 6.87774V23.2695H97.8507V6.87774H102.971ZM97.5478 2.65103C97.5478 1.92385 97.8103 1.32797 98.3355 0.863382C98.8607 0.398797 99.5424 0.166504 100.381 0.166504C101.219 0.166504 101.901 0.398797 102.426 0.863382C102.951 1.32797 103.214 1.92385 103.214 2.65103C103.214 3.3782 102.951 3.97408 102.426 4.43867C101.901 4.90325 101.219 5.13555 100.381 5.13555C99.5424 5.13555 98.8607 4.90325 98.3355 4.43867C97.8103 3.97408 97.5478 3.3782 97.5478 2.65103Z" fill="#048A81"/>
<path d="M86.7007 0V23.2697H81.5802V0H86.7007Z" fill="black"/>
<path d="M73.3388 19.1488V12.3921C73.3388 11.9275 73.2732 11.5286 73.1419 11.1953C73.0106 10.862 72.8035 10.6045 72.5207 10.4227C72.2379 10.2308 71.8592 10.1348 71.3845 10.1348C71.0007 10.1348 70.6725 10.2005 70.3998 10.3318C70.1271 10.4631 69.9201 10.66 69.7787 10.9226C69.6373 11.1852 69.5666 11.5185 69.5666 11.9225H64.4612C64.4612 11.165 64.6278 10.4631 64.9611 9.8167C65.3045 9.16022 65.7893 8.58959 66.4155 8.10481C67.0518 7.62002 67.8092 7.24634 68.6879 6.98374C69.5767 6.71105 70.5665 6.57471 71.6572 6.57471C72.9601 6.57471 74.1215 6.79185 75.1416 7.22614C76.1718 7.66042 76.9848 8.31185 77.5807 9.18042C78.1766 10.0389 78.4745 11.1196 78.4745 12.4224V19.1337C78.4745 20.2042 78.5351 21.0172 78.6563 21.5727C78.7775 22.1181 78.9492 22.5978 79.1714 23.0119V23.2695H74.0508C73.8084 22.7645 73.6267 22.1484 73.5055 21.4212C73.3944 20.684 73.3388 19.9265 73.3388 19.1488ZM73.9599 13.2556L73.9902 15.9826H71.733C71.2583 15.9826 70.8543 16.0482 70.521 16.1795C70.1978 16.3108 69.9352 16.4926 69.7332 16.7249C69.5413 16.9471 69.3999 17.1996 69.309 17.4824C69.2282 17.7652 69.1878 18.0631 69.1878 18.3762C69.1878 18.6792 69.2585 18.9519 69.3999 19.1943C69.5514 19.4265 69.7534 19.6083 70.0059 19.7396C70.2584 19.8709 70.5412 19.9366 70.8543 19.9366C71.4199 19.9366 71.8996 19.8305 72.2935 19.6184C72.6975 19.3962 73.0055 19.1286 73.2176 18.8155C73.4297 18.5024 73.5358 18.2095 73.5358 17.9368L74.6568 20.0275C74.4548 20.4315 74.2225 20.8405 73.9599 21.2546C73.7075 21.6687 73.3893 22.0525 73.0055 22.406C72.6318 22.7493 72.1723 23.0321 71.6269 23.2543C71.0815 23.4664 70.42 23.5725 69.6423 23.5725C68.6324 23.5725 67.7032 23.3654 66.8548 22.9513C66.0165 22.5372 65.3449 21.9616 64.8399 21.2243C64.335 20.4769 64.0825 19.6184 64.0825 18.6489C64.0825 17.8005 64.234 17.043 64.5369 16.3764C64.85 15.7099 65.3197 15.1443 65.9458 14.6797C66.572 14.2151 67.3699 13.8616 68.3395 13.6192C69.309 13.3768 70.4503 13.2556 71.7633 13.2556H73.9599Z" fill="black"/>
<path d="M47.3877 0H52.4931V19.2399L51.9629 23.2697H47.3877V0ZM62.5524 14.892V15.2101C62.5524 16.4524 62.4261 17.5835 62.1736 18.6036C61.9211 19.6237 61.5323 20.5074 61.0071 21.2548C60.4819 21.9921 59.8204 22.5627 59.0225 22.9667C58.2247 23.3707 57.2803 23.5727 56.1896 23.5727C55.1998 23.5727 54.3514 23.3606 53.6444 22.9364C52.9375 22.5021 52.3466 21.9062 51.872 21.1487C51.3973 20.3812 51.0135 19.4974 50.7206 18.4976C50.4277 17.4876 50.1954 16.4069 50.0237 15.2556V14.8768C50.1954 13.7356 50.4277 12.665 50.7206 11.6651C51.0135 10.6552 51.3973 9.77144 51.872 9.01396C52.3466 8.24639 52.9324 7.65051 53.6293 7.22632C54.3363 6.79203 55.1796 6.57489 56.1593 6.57489C57.2601 6.57489 58.2095 6.78193 59.0074 7.19602C59.8154 7.61011 60.4819 8.19084 61.0071 8.93822C61.5323 9.68559 61.9211 10.5643 62.1736 11.5742C62.4261 12.5842 62.5524 13.6901 62.5524 14.892ZM57.447 15.2101V14.892C57.447 14.2961 57.4116 13.7356 57.3409 13.2104C57.2702 12.6852 57.144 12.2206 56.9622 11.8166C56.7804 11.4126 56.5229 11.0945 56.1896 10.8622C55.8563 10.6299 55.422 10.5138 54.8867 10.5138C54.3413 10.5138 53.8818 10.6047 53.5081 10.7865C53.1445 10.9683 52.8516 11.2308 52.6294 11.5742C52.4173 11.9075 52.2658 12.3216 52.1749 12.8165C52.084 13.3013 52.0436 13.8517 52.0537 14.4678V15.6646C52.0335 16.5029 52.1093 17.22 52.281 17.8158C52.4527 18.4117 52.7506 18.8662 53.1748 19.1793C53.599 19.4924 54.1797 19.6489 54.917 19.6489C55.4624 19.6489 55.9017 19.5429 56.235 19.3308C56.5784 19.1187 56.8359 18.8157 57.0076 18.4218C57.1793 18.0279 57.2955 17.5583 57.3561 17.0129C57.4167 16.4675 57.447 15.8666 57.447 15.2101Z" fill="black"/>
<path d="M29.2537 15.2402V14.9221C29.2537 13.7202 29.4254 12.6143 29.7688 11.6043C30.1122 10.5843 30.6172 9.70056 31.2838 8.95318C31.9503 8.20581 32.7735 7.62507 33.7531 7.21099C34.7328 6.7868 35.864 6.57471 37.1466 6.57471C38.4394 6.57471 39.5756 6.7868 40.5553 7.21099C41.545 7.62507 42.3732 8.20581 43.0398 8.95318C43.7064 9.70056 44.2113 10.5843 44.5547 11.6043C44.8981 12.6143 45.0698 13.7202 45.0698 14.9221V15.2402C45.0698 16.432 44.8981 17.5379 44.5547 18.558C44.2113 19.5679 43.7064 20.4517 43.0398 21.2091C42.3732 21.9565 41.5501 22.5372 40.5704 22.9513C39.5907 23.3654 38.4596 23.5725 37.1769 23.5725C35.8943 23.5725 34.758 23.3654 33.7683 22.9513C32.7785 22.5372 31.9503 21.9565 31.2838 21.2091C30.6172 20.4517 30.1122 19.5679 29.7688 18.558C29.4254 17.5379 29.2537 16.432 29.2537 15.2402ZM34.3591 14.9221V15.2402C34.3591 15.8563 34.4046 16.432 34.4955 16.9673C34.5864 17.5026 34.7378 17.9722 34.9499 18.3762C35.162 18.7701 35.4499 19.0781 35.8135 19.3003C36.1771 19.5225 36.6315 19.6336 37.1769 19.6336C37.7122 19.6336 38.1566 19.5225 38.5101 19.3003C38.8737 19.0781 39.1615 18.7701 39.3736 18.3762C39.5857 17.9722 39.7372 17.5026 39.8281 16.9673C39.919 16.432 39.9644 15.8563 39.9644 15.2402V14.9221C39.9644 14.3262 39.919 13.7657 39.8281 13.2405C39.7372 12.7052 39.5857 12.2356 39.3736 11.8316C39.1615 11.4175 38.8737 11.0943 38.5101 10.862C38.1465 10.6297 37.692 10.5136 37.1466 10.5136C36.6113 10.5136 36.1619 10.6297 35.7983 10.862C35.4448 11.0943 35.162 11.4175 34.9499 11.8316C34.7378 12.2356 34.5864 12.7052 34.4955 13.2405C34.4046 13.7657 34.3591 14.3262 34.3591 14.9221Z" fill="black"/>
<path d="M26.7389 0V23.2697H21.6184V0H26.7389Z" fill="black"/>
<path d="M18.4824 11.4836V20.543C18.1087 20.9571 17.533 21.4014 16.7554 21.8761C15.9878 22.3407 15.0182 22.7396 13.8467 23.0729C12.6751 23.4062 11.2965 23.5729 9.71084 23.5729C8.24639 23.5729 6.91828 23.3406 5.72652 22.876C4.53476 22.4013 3.50964 21.7095 2.65117 20.8005C1.80279 19.8814 1.14631 18.7604 0.681728 17.4373C0.227243 16.1042 0 14.5791 0 12.8622V11.6351C0 9.91811 0.232293 8.39305 0.696878 7.0599C1.16146 5.72674 1.81289 4.60567 2.65117 3.6967C3.49954 2.77763 4.49436 2.08076 5.63562 1.60607C6.78698 1.13139 8.04944 0.894043 9.423 0.894043C11.453 0.894043 13.1043 1.21723 14.3769 1.86361C15.6495 2.49989 16.614 3.38361 17.2705 4.51478C17.9269 5.63584 18.3259 6.93365 18.4673 8.4082H13.3619C13.2609 7.68103 13.069 7.06495 12.7862 6.55996C12.5135 6.04488 12.1196 5.65604 11.6045 5.39345C11.0894 5.12076 10.4229 4.98441 9.60479 4.98441C8.96851 4.98441 8.38778 5.12076 7.8626 5.39345C7.34752 5.66614 6.90818 6.08023 6.54459 6.63571C6.181 7.18109 5.89821 7.86787 5.69622 8.69605C5.50432 9.52422 5.40838 10.4938 5.40838 11.6048V12.8622C5.40838 13.963 5.49928 14.9275 5.68107 15.7557C5.87296 16.5839 6.15575 17.2757 6.52944 17.8312C6.91323 18.3766 7.39801 18.7907 7.9838 19.0735C8.57968 19.3462 9.2816 19.4825 10.0896 19.4825C10.6552 19.4825 11.1399 19.4371 11.5439 19.3462C11.9479 19.2452 12.2812 19.124 12.5438 18.9826C12.8165 18.8311 13.0235 18.6897 13.1649 18.5584V15.1346H9.46845V11.4836H18.4824Z" fill="black"/>
</svg>
