<svg width="115" height="25" viewBox="0 0 115 25" fill="none" xmlns="http://www.w3.org/2000/svg">
<path d="M114.758 7.59158V11.1366H104.88V7.59158H114.758ZM106.956 3.51636H112.061V18.6356C112.061 19.0699 112.111 19.4082 112.212 19.6506C112.313 19.8829 112.485 20.0495 112.728 20.1505C112.98 20.2414 113.313 20.2869 113.727 20.2869C114.02 20.2869 114.263 20.2818 114.455 20.2717C114.647 20.2515 114.828 20.2263 115 20.196V23.847C114.566 23.9884 114.111 24.0945 113.637 24.1651C113.162 24.2459 112.657 24.2863 112.122 24.2863C111.031 24.2863 110.097 24.1147 109.319 23.7713C108.551 23.4279 107.966 22.8875 107.562 22.1503C107.158 21.413 106.956 20.4535 106.956 19.2719V3.51636Z" fill="black"/>
<path d="M102.971 7.59158V23.9834H97.8507V7.59158H102.971ZM97.5478 3.36486C97.5478 2.63768 97.8103 2.0418 98.3355 1.57722C98.8607 1.11263 99.5424 0.880341 100.381 0.880341C101.219 0.880341 101.901 1.11263 102.426 1.57722C102.951 2.0418 103.214 2.63768 103.214 3.36486C103.214 4.09204 102.951 4.68792 102.426 5.1525C101.901 5.61709 101.219 5.84938 100.381 5.84938C99.5424 5.84938 98.8607 5.61709 98.3355 5.1525C97.8103 4.68792 97.5478 4.09204 97.5478 3.36486Z" fill="#1557FF"/>
<path d="M86.7007 0.713684V23.9833H81.5802V0.713684H86.7007Z" fill="black"/>
<path d="M73.3388 19.8627V13.106C73.3388 12.6414 73.2732 12.2425 73.1419 11.9092C73.0106 11.5759 72.8035 11.3183 72.5207 11.1366C72.2379 10.9447 71.8592 10.8487 71.3845 10.8487C71.0007 10.8487 70.6725 10.9144 70.3998 11.0457C70.1271 11.177 69.9201 11.3739 69.7787 11.6365C69.6373 11.8991 69.5666 12.2324 69.5666 12.6364H64.4612C64.4612 11.8789 64.6278 11.177 64.9611 10.5306C65.3045 9.87409 65.7893 9.30346 66.4155 8.81868C67.0518 8.33389 67.8092 7.9602 68.6879 7.69761C69.5767 7.42492 70.5665 7.28857 71.6572 7.28857C72.9601 7.28857 74.1215 7.50572 75.1416 7.94C76.1718 8.37429 76.9848 9.02572 77.5807 9.89429C78.1766 10.7528 78.4745 11.8334 78.4745 13.1363V19.8475C78.4745 20.9181 78.5351 21.7311 78.6563 22.2866C78.7775 22.832 78.9492 23.3117 79.1714 23.7258V23.9833H74.0508C73.8084 23.4784 73.6267 22.8623 73.5055 22.1351C73.3944 21.3978 73.3388 20.6403 73.3388 19.8627ZM73.9599 13.9695L73.9902 16.6964H71.733C71.2583 16.6964 70.8543 16.7621 70.521 16.8934C70.1978 17.0247 69.9352 17.2065 69.7332 17.4388C69.5413 17.6609 69.3999 17.9134 69.309 18.1962C69.2282 18.479 69.1878 18.777 69.1878 19.09C69.1878 19.393 69.2585 19.6657 69.3999 19.9081C69.5514 20.1404 69.7534 20.3222 70.0059 20.4535C70.2584 20.5848 70.5412 20.6504 70.8543 20.6504C71.4199 20.6504 71.8996 20.5444 72.2935 20.3323C72.6975 20.1101 73.0055 19.8425 73.2176 19.5294C73.4297 19.2163 73.5358 18.9234 73.5358 18.6507L74.6568 20.7413C74.4548 21.1453 74.2225 21.5544 73.9599 21.9685C73.7075 22.3825 73.3893 22.7663 73.0055 23.1198C72.6318 23.4632 72.1723 23.746 71.6269 23.9682C71.0815 24.1803 70.42 24.2863 69.6423 24.2863C68.6324 24.2863 67.7032 24.0793 66.8548 23.6652C66.0165 23.2511 65.3449 22.6754 64.8399 21.9382C64.335 21.1908 64.0825 20.3323 64.0825 19.3627C64.0825 18.5144 64.234 17.7569 64.5369 17.0903C64.85 16.4237 65.3197 15.8582 65.9458 15.3936C66.572 14.929 67.3699 14.5755 68.3395 14.3331C69.309 14.0907 70.4503 13.9695 71.7633 13.9695H73.9599Z" fill="black"/>
<path d="M47.3877 0.713684H52.4931V19.9536L51.9629 23.9833H47.3877V0.713684ZM62.5524 15.6057V15.9238C62.5524 17.1661 62.4261 18.2972 62.1736 19.3173C61.9211 20.3374 61.5323 21.2211 61.0071 21.9685C60.4819 22.7057 59.8204 23.2764 59.0225 23.6804C58.2247 24.0843 57.2803 24.2863 56.1896 24.2863C55.1998 24.2863 54.3514 24.0742 53.6444 23.6501C52.9375 23.2158 52.3466 22.6199 51.872 21.8624C51.3973 21.0948 51.0135 20.2111 50.7206 19.2112C50.4277 18.2013 50.1954 17.1206 50.0237 15.9692V15.5905C50.1954 14.4492 50.4277 13.3787 50.7206 12.3788C51.0135 11.3688 51.3973 10.4851 51.872 9.72765C52.3466 8.96007 52.9324 8.36419 53.6293 7.94C54.3363 7.50572 55.1796 7.28858 56.1593 7.28858C57.2601 7.28858 58.2095 7.49562 59.0074 7.90971C59.8154 8.32379 60.4819 8.90452 61.0071 9.6519C61.5323 10.3993 61.9211 11.2779 62.1736 12.2879C62.4261 13.2979 62.5524 14.4038 62.5524 15.6057ZM57.447 15.9238V15.6057C57.447 15.0098 57.4116 14.4492 57.3409 13.9241C57.2702 13.3989 57.144 12.9343 56.9622 12.5303C56.7804 12.1263 56.5229 11.8082 56.1896 11.5759C55.8563 11.3436 55.422 11.2275 54.8867 11.2275C54.3413 11.2275 53.8818 11.3183 53.5081 11.5001C53.1445 11.6819 52.8516 11.9445 52.6294 12.2879C52.4173 12.6212 52.2658 13.0353 52.1749 13.5302C52.084 14.015 52.0436 14.5654 52.0537 15.1815V16.3783C52.0335 17.2166 52.1093 17.9336 52.281 18.5295C52.4527 19.1254 52.7506 19.5799 53.1748 19.893C53.599 20.2061 54.1797 20.3626 54.917 20.3626C55.4624 20.3626 55.9017 20.2566 56.235 20.0445C56.5784 19.8324 56.8359 19.5294 57.0076 19.1355C57.1793 18.7416 57.2955 18.272 57.3561 17.7266C57.4167 17.1812 57.447 16.5803 57.447 15.9238Z" fill="black"/>
<path d="M29.2537 15.9541V15.636C29.2537 14.4341 29.4254 13.3282 29.7688 12.3182C30.1122 11.2981 30.6172 10.4144 31.2838 9.66705C31.9503 8.91967 32.7735 8.33894 33.7531 7.92485C34.7328 7.50067 35.864 7.28857 37.1466 7.28857C38.4394 7.28857 39.5756 7.50067 40.5553 7.92485C41.545 8.33894 42.3732 8.91967 43.0398 9.66705C43.7064 10.4144 44.2113 11.2981 44.5547 12.3182C44.8981 13.3282 45.0698 14.4341 45.0698 15.636V15.9541C45.0698 17.1459 44.8981 18.2518 44.5547 19.2718C44.2113 20.2818 43.7064 21.1655 43.0398 21.923C42.3732 22.6704 41.5501 23.2511 40.5704 23.6652C39.5907 24.0793 38.4596 24.2863 37.1769 24.2863C35.8943 24.2863 34.758 24.0793 33.7683 23.6652C32.7785 23.2511 31.9503 22.6704 31.2838 21.923C30.6172 21.1655 30.1122 20.2818 29.7688 19.2718C29.4254 18.2518 29.2537 17.1459 29.2537 15.9541ZM34.3591 15.636V15.9541C34.3591 16.5702 34.4046 17.1459 34.4955 17.6811C34.5864 18.2164 34.7378 18.6861 34.9499 19.09C35.162 19.4839 35.4499 19.792 35.8135 20.0142C36.1771 20.2364 36.6315 20.3475 37.1769 20.3475C37.7122 20.3475 38.1566 20.2364 38.5101 20.0142C38.8737 19.792 39.1615 19.4839 39.3736 19.09C39.5857 18.6861 39.7372 18.2164 39.8281 17.6811C39.919 17.1459 39.9644 16.5702 39.9644 15.9541V15.636C39.9644 15.0401 39.919 14.4795 39.8281 13.9544C39.7372 13.4191 39.5857 12.9494 39.3736 12.5455C39.1615 12.1314 38.8737 11.8082 38.5101 11.5759C38.1465 11.3436 37.692 11.2274 37.1466 11.2274C36.6113 11.2274 36.1619 11.3436 35.7983 11.5759C35.4448 11.8082 35.162 12.1314 34.9499 12.5455C34.7378 12.9494 34.5864 13.4191 34.4955 13.9544C34.4046 14.4795 34.3591 15.0401 34.3591 15.636Z" fill="black"/>
<path d="M26.7389 0.713684V23.9833H21.6184V0.713684H26.7389Z" fill="black"/>
<path d="M18.4824 12.197V21.2564C18.1087 21.6705 17.533 22.1149 16.7554 22.5896C15.9878 23.0542 15.0182 23.4531 13.8467 23.7864C12.6751 24.1197 11.2965 24.2863 9.71084 24.2863C8.24639 24.2863 6.91828 24.0541 5.72652 23.5895C4.53476 23.1148 3.50964 22.423 2.65117 21.514C1.80279 20.5949 1.14631 19.4738 0.681728 18.1508C0.227243 16.8176 0 15.2926 0 13.5756V12.3485C0 10.6316 0.232293 9.10653 0.696878 7.77337C1.16146 6.44021 1.81289 5.31915 2.65117 4.41017C3.49954 3.4911 4.49436 2.79423 5.63562 2.31954C6.78698 1.84486 8.04944 1.60751 9.423 1.60751C11.453 1.60751 13.1043 1.9307 14.3769 2.57708C15.6495 3.21336 16.614 4.09708 17.2705 5.22825C17.9269 6.34931 18.3259 7.64712 18.4673 9.12167H13.3619C13.2609 8.3945 13.069 7.77842 12.7862 7.27343C12.5135 6.75835 12.1196 6.36951 11.6045 6.10692C11.0894 5.83423 10.4229 5.69788 9.60479 5.69788C8.96851 5.69788 8.38778 5.83423 7.8626 6.10692C7.34752 6.37961 6.90818 6.7937 6.54459 7.34918C6.181 7.89456 5.89821 8.58134 5.69622 9.40952C5.50432 10.2377 5.40838 11.2073 5.40838 12.3182V13.5756C5.40838 14.6765 5.49928 15.641 5.68107 16.4692C5.87296 17.2974 6.15575 17.9892 6.52944 18.5447C6.91323 19.0901 7.39801 19.5041 7.9838 19.7869C8.57968 20.0596 9.2816 20.196 10.0896 20.196C10.6552 20.196 11.1399 20.1505 11.5439 20.0596C11.9479 19.9586 12.2812 19.8374 12.5438 19.696C12.8165 19.5445 13.0235 19.4031 13.1649 19.2719V15.8481H9.46845V12.197H18.4824Z" fill="black"/>
</svg>
